<svg xmlns="http://www.w3.org/2000/svg" version="1.1" width="100" height="100" viewBox="1.6 -3.2 32.0 43.2">
<path id="cloudy" d="M28.316,13.557c0.513-0.859,0.809-1.86,0.809-2.932c0-3.17-2.579-5.75-5.75-5.75  c-0.037,0-0.073,0-0.109,0.002c-1.229-1.868-3.312-3.002-5.578-3.002c-1.137,0-2.236,0.285-3.224,0.829  c-1.118-0.584-2.357-0.891-3.62-0.891C6.519,1.812,3,5.331,3,9.656c0,1.326,0.343,2.568,0.928,3.663  C2.907,14.135,2.25,15.39,2.25,16.797c0,2.455,1.998,4.453,4.453,4.453h18.593c2.456,0,4.455-1.998,4.455-4.453  C29.75,15.519,29.189,14.371,28.316,13.557z M5,9.656c0-3.222,2.622-5.844,5.844-5.844c1.096,0,2.169,0.311,3.104,0.9l0.555,0.35  l0.542-0.371c0.781-0.534,1.695-0.816,2.643-0.816c1.752,0,3.347,0.968,4.156,2.527l0.325,0.625l0.798-0.11  c0.135-0.019,0.268-0.042,0.407-0.042c2.067,0,3.75,1.682,3.75,3.75c0,0.709-0.218,1.359-0.563,1.922  c-0.185-0.055-0.367-0.111-0.56-0.143c-1.035-1.985-3.071-3.236-5.349-3.236c-0.525,0-1.043,0.067-1.545,0.2  C17.717,7.559,15.59,6.5,13.277,6.5c-3.513,0-6.525,2.523-7.219,5.891c-0.112,0.016-0.216,0.054-0.326,0.078  C5.271,11.633,5,10.677,5,9.656z M25.295,19.25H6.702c-1.353,0-2.453-1.102-2.453-2.453c0-1.351,1.098-2.45,2.44-2.45h0.004  l1.154,0.075l0.077-0.976c0.219-2.773,2.57-4.945,5.352-4.945c1.882,0,3.595,0.964,4.583,2.578l0.447,0.731l0.791-0.33  c0.492-0.207,1.019-0.311,1.557-0.311c1.664,0,3.137,1,3.752,2.549l0.248,0.623l0.67,0.008c1.338,0.016,2.426,1.114,2.426,2.449  C27.75,18.148,26.648,19.25,25.295,19.25z"/>
<!-- <text x="0.0" y="37.6" font-size="1.6" font-weight="bold" font-family="Helvetica Neue, Helvetica, Arial-Unicode, Arial, Sans-serif" fill="#000000">Created by Dmitry Baranovskiy</text><text x="0.0" y="39.2" font-size="1.6" font-weight="bold" font-family="Helvetica Neue, Helvetica, Arial-Unicode, Arial, Sans-serif" fill="#000000">from the Noun Project</text> --></svg>