<svg xmlns="http://www.w3.org/2000/svg" xmlns:xlink="http://www.w3.org/1999/xlink" version="1.1" id="Layer_1" x="0px" y="0px" width="80.6451612903px" height="100px" viewBox="5.0 -12.4018 100.0 167.4243" enable-background="new 0 0 100 124.018" xml:space="preserve">
<path stroke="#FFFFFF" stroke-width="0" stroke-linecap="round" stroke-linejoin="round" d="M96.298,95.1  c-0.262-0.812-1.102-0.796-1.672-1.253c-1.524-11.615-2.079-24.795-3.928-36.604c-1.309-8.354-2.997-17.469-5.35-25.072  c-0.792-2.563-1.71-5.297-3.175-7.021c-1.028-1.209-2.589-1.765-4.179-2.507c-2.138-0.998-4.261-1.827-6.436-2.758  c-1.083-0.463-2.455-0.849-3.259-1.42c-0.535-0.38-0.809-1.16-1.254-1.588c-0.828-0.796-1.864-1.412-2.758-2.173  c-1.804-1.536-3.463-3.317-4.847-5.182c-0.734-0.988-1.329-2.058-2.174-2.841c-2.953-2.74-11.19-3.042-14.541-0.501  c-1.375,1.042-1.995,2.305-3.009,3.928c-0.861,1.378-2.065,2.649-3.175,3.761c-1.647,1.646-3.581,2.861-4.68,4.847  c-2.135,0.801-4.264,1.772-6.436,2.674c-2.172,0.902-4.566,1.53-6.436,2.758c-2.042,1.342-2.952,5.149-3.76,8.023  C10.122,50.334,7.699,72.439,6.207,93.68c-0.594,0.703-2.311,0.772-2.591,1.755c-0.13,0.458,0.122,1.396,0.251,2.172  c0.121,0.737,0.242,1.52,0.333,2.174c0.215,1.526,0.229,3.354,0.501,4.429c0.156,0.614,0.781,0.908,0.836,1.338  c0.102,0.8-0.348,1.719-0.167,2.173c0.32,0.806,1.982,0.973,3.008,1.17c3.595,0.69,8.031,1.459,11.283,0.334  c0.789-3.507,0.867-7.318,1.169-11.114c0.458-5.742,0.885-11.553,1.087-17.384c0.19-5.524,1.903-10.946,2.59-15.962  c0.849,7.356-0.167,15.294-0.167,23.567c0,5.842-0.006,12.327-0.168,18.135c-0.05,1.794-0.434,4.504,0,6.018  c0.305,1.062,1.568,2.036,2.675,2.674c3.587,2.068,8.31,2.483,13.205,2.926c0.455,0.549,0.208,1.152,0.836,1.421  c0.475,0.203,1.49-0.055,2.34-0.168c5.726-0.764,11.705-1.003,17.215-1.588c3.045-0.322,6.171-0.609,9.277-1.421  c2.424-0.634,5.843-2.057,6.435-4.345c0.39-1.507,0.168-3.831,0.168-5.684c0-2.056,0.083-4.157,0.083-5.934  c0-8.321-0.848-15.526-0.501-23.4c0.171-3.911,0.281-7.815,0.25-11.616c1.034,6.771,1.921,13.938,2.424,21.311  c0.504,7.386,0.862,14.978,1.42,22.397c3.516,1.052,8.526,0.545,12.035-0.084c1.264-0.226,2.623-0.229,3.343-1.086  c0.188-0.996-0.313-2.026-0.501-2.925c0.455-0.269,1.021-0.428,1.253-0.92c-0.035-1.307,0.008-2.893,0.083-4.512  C96.287,97.976,96.587,96.001,96.298,95.1z M41.872,100.587c-1.084,0-1.964-0.878-1.964-1.964c0-1.084,0.879-1.964,1.964-1.964  c1.085,0,1.964,0.88,1.964,1.964C43.835,99.709,42.957,100.587,41.872,100.587z M41.872,77.449c-1.084,0-1.964-0.88-1.964-1.964  c0-1.085,0.879-1.965,1.964-1.965c1.085,0,1.964,0.88,1.964,1.965C43.835,76.569,42.957,77.449,41.872,77.449z M41.872,55.113  c-1.084,0-1.964-0.879-1.964-1.964c0-1.085,0.879-1.964,1.964-1.964c1.085,0,1.964,0.879,1.964,1.964  C43.835,54.234,42.957,55.113,41.872,55.113z M57.082,100.587c-1.085,0-1.965-0.878-1.965-1.964c0-1.084,0.88-1.964,1.965-1.964  c1.084,0,1.964,0.88,1.964,1.964C59.045,99.709,58.166,100.587,57.082,100.587z M57.082,77.449c-1.085,0-1.965-0.88-1.965-1.964  c0-1.085,0.88-1.965,1.965-1.965c1.084,0,1.964,0.88,1.964,1.965C59.045,76.569,58.166,77.449,57.082,77.449z M57.082,55.113  c-1.085,0-1.965-0.879-1.965-1.964c0-1.085,0.88-1.964,1.965-1.964c1.084,0,1.964,0.879,1.964,1.964  C59.045,54.234,58.166,55.113,57.082,55.113z" fill="#000000"/>
<!-- <text x="0.0" y="145.72115" font-size="6.2009" font-weight="bold" font-family="Helvetica Neue, Helvetica, Arial-Unicode, Arial, Sans-serif" fill="#000000">Created by Wilson Joseph</text><text x="0.0" y="151.92205" font-size="6.2009" font-weight="bold" font-family="Helvetica Neue, Helvetica, Arial-Unicode, Arial, Sans-serif" fill="#000000">from the Noun Project</text> --></svg>