<svg xmlns="http://www.w3.org/2000/svg" xmlns:xlink="http://www.w3.org/1999/xlink" version="1.1" id="Layer_1" x="0px" y="0px" width="100px" height="100px" viewBox="5.0 -10.0 100.0 135.0" enable-background="new 0 0 100 100" xml:space="preserve">
<path fill-rule="evenodd" clip-rule="evenodd" fill="#000000" d="M75.727,43.26c-2.025-7.034-5.568-13.822-9.751-19.704  c-0.578-0.8-2.672-2.914-2.672-2.914c1.794,4.664,1.68,9.501,0.778,13.869C59.191,23.284,50.62,9.23,37.729,1.811  c0,0,8.58,21.8-3.664,45.855c-0.675-3.242-1.362-7.9-0.992-12.518c0,0-1.548,1.324-1.727,1.516  c-1.381,1.471-2.538,3.192-3.557,4.967c-3.716,6.661-5.675,14.709-5.19,22.804c0.181,3.063,0.693,6.122,1.386,9.135  c2.15,9.648,7.091,19.763,14.419,24.399c-2.306-4.361-3.713-10.039-3.713-16.264c0-2.581,0.241-5.087,0.697-7.428  c0.052,1.036,0.206,2.104,0.461,3.193c0.984,4.197,3.251,7.54,5.824,9.069c-1.163-3.39-1.583-7.872-0.959-12.67  c0.452-3.535,1.395-6.76,2.678-9.408c1.422-3.002,3.254-5.261,5.228-6.383c-0.822,1.568-1.438,3.595-1.756,5.883  c-0.124,0.879-0.197,1.803-0.224,2.762c-0.012,0.217-0.012,0.438-0.012,0.675c0,0.591,0.018,1.181,0.067,1.753  c0.177,2.721,0.776,5.152,1.666,7.035c0.049,0.103,0.094,0.195,0.141,0.289c0.44,0.83,1.166,1.405,2,1.518c0,0,0,0,0.009,0  c0.082,0.008,0.176,0.015,0.268,0.015c0.026,0,0.059,0,0.082-0.007c1.26-0.038,2.306-1.165,2.588-2.657  c0.044-0.241,0.074-0.502,0.074-0.759c0-0.02,0-0.039,0-0.055c0.075-1.078,0.008-2.242-0.196-3.444  c-0.109-0.64-0.245-1.252-0.426-1.837c-0.222-0.761-0.493-1.451-0.804-2.095c0.515,0.106,1.034,0.276,1.533,0.532  c1.905,0.931,3.609,2.832,4.788,5.33c0.196,0.426,0.379,0.867,0.54,1.329c0.341,0.937,0.605,1.932,0.785,2.99  c0.085,0.521,0.149,1.025,0.187,1.535c0.519-1.099,0.99-2.306,1.396-3.587c0.78-2.405,1.232-4.739,1.37-6.784  c1.473,3.823,2.326,8.353,2.326,13.205c0,6.333-1.456,12.09-3.835,16.484c1.222-0.697,2.403-1.505,3.51-2.427  c4.14-3.374,7.059-8.6,8.946-14.261c1.063-3.098,2.107-6.555,2.611-9.814C77.746,62.237,78.188,52.22,75.727,43.26z"/>
<!-- <text x="0.0" y="117.5" font-size="5.0" font-weight="bold" font-family="Helvetica Neue, Helvetica, Arial-Unicode, Arial, Sans-serif" fill="#000000">Created by Matthew Hawdon</text><text x="0.0" y="122.5" font-size="5.0" font-weight="bold" font-family="Helvetica Neue, Helvetica, Arial-Unicode, Arial, Sans-serif" fill="#000000">from the Noun Project</text> --></svg>