<svg xmlns="http://www.w3.org/2000/svg" xmlns:xlink="http://www.w3.org/1999/xlink" version="1.1" id="Layer_1" x="0px" y="0px" width="100px" height="100px" viewBox="5.0 -10.0 100.0 135.0" enable-background="new 0 0 100 100" xml:space="preserve">
<g>
	<g>
		<g>
			<path d="M77.955,69.748c-0.108,0-0.217-0.003-0.326-0.01c-2.114-0.126-4.065-1.456-5.351-3.647l-0.968-1.651     c-0.433-0.739-0.809-0.898-0.879-0.898s-0.446,0.16-0.879,0.899l-0.969,1.649c-1.255,2.141-3.147,3.369-5.191,3.369     c-2.043,0.001-3.936-1.228-5.193-3.368l-0.968-1.651c-0.356-0.607-0.79-0.982-1.158-1.001c-0.349-0.038-0.836,0.31-1.254,0.878     l-1.703,2.323c-1.438,1.96-3.455,3.022-5.542,2.915c-2.084-0.106-3.985-1.37-5.214-3.466l-0.967-1.647     c-0.357-0.609-0.79-0.984-1.158-1.003c-0.358-0.003-0.837,0.31-1.254,0.879l-1.703,2.322c-1.437,1.959-3.457,3.024-5.542,2.915     c-2.084-0.106-3.985-1.369-5.215-3.464l-0.968-1.651c-0.384-0.654-0.875-1.054-1.346-1.093c-0.461-0.05-0.978,0.25-1.453,0.814     l-3.833,4.552l-3.824-3.221l3.832-4.551c1.529-1.815,3.615-2.756,5.701-2.577c2.11,0.179,4.019,1.471,5.236,3.545l0.968,1.651     c0.356,0.607,0.789,0.982,1.157,1.001c0.379-0.005,0.837-0.31,1.254-0.879l1.703-2.322c1.438-1.959,3.468-3.021,5.542-2.915     c2.085,0.106,3.985,1.37,5.215,3.466l0.967,1.647c0.357,0.609,0.791,0.984,1.158,1.003c0.395,0.039,0.837-0.311,1.254-0.878     l1.703-2.323c1.437-1.96,3.458-3.021,5.542-2.915s3.985,1.369,5.215,3.464l0.968,1.651c0.433,0.739,0.809,0.898,0.879,0.898     s0.446-0.16,0.879-0.899l0.969-1.649c1.255-2.141,3.147-3.369,5.191-3.369c2.043-0.001,3.936,1.228,5.193,3.368l0.968,1.651     c0.497,0.847,1.03,1.168,1.336,1.187c0.321,0.037,0.654-0.338,0.817-0.553l3.265-4.295l3.979,3.027l-3.264,4.293     C81.494,68.84,79.771,69.748,77.955,69.748z"/>
		</g>
	</g>
	<g>
		<g>
			<path d="M77.955,55.748c-0.108,0-0.217-0.003-0.326-0.01c-2.114-0.126-4.065-1.456-5.351-3.647l-0.968-1.651     c-0.433-0.739-0.809-0.898-0.879-0.898s-0.446,0.16-0.879,0.899l-0.969,1.649c-1.255,2.141-3.147,3.369-5.191,3.369     c-2.043,0.001-3.936-1.228-5.193-3.368l-0.968-1.651c-0.356-0.607-0.79-0.982-1.158-1.001c-0.349-0.037-0.836,0.31-1.254,0.878     l-1.703,2.323c-1.438,1.96-3.455,3.02-5.542,2.915c-2.084-0.106-3.985-1.37-5.214-3.466l-0.967-1.647     c-0.357-0.609-0.79-0.984-1.158-1.003c-0.358-0.001-0.837,0.31-1.254,0.879l-1.703,2.322c-1.437,1.959-3.457,3.021-5.542,2.915     c-2.084-0.106-3.985-1.369-5.215-3.464l-0.968-1.651c-0.384-0.654-0.875-1.054-1.346-1.093c-0.461-0.051-0.978,0.25-1.453,0.814     l-3.833,4.552l-3.824-3.221l3.832-4.551c1.529-1.815,3.615-2.759,5.701-2.577c2.11,0.179,4.019,1.471,5.236,3.545l0.968,1.651     c0.356,0.607,0.789,0.982,1.157,1.001c0.379-0.004,0.837-0.31,1.254-0.879l1.703-2.322c1.438-1.959,3.468-3.017,5.542-2.915     c2.085,0.106,3.985,1.37,5.215,3.466l0.967,1.647c0.357,0.609,0.791,0.984,1.158,1.003c0.395,0.031,0.837-0.311,1.254-0.878     l1.703-2.323c1.437-1.96,3.458-3.021,5.542-2.915s3.985,1.369,5.215,3.464l0.968,1.651c0.433,0.739,0.809,0.898,0.879,0.898     s0.446-0.16,0.879-0.899l0.969-1.649c1.255-2.141,3.147-3.369,5.191-3.369c2.043-0.001,3.936,1.228,5.193,3.368l0.968,1.651     c0.497,0.847,1.03,1.168,1.336,1.187c0.321,0.029,0.654-0.338,0.817-0.553l3.265-4.295l3.979,3.027l-3.264,4.293     C81.494,54.84,79.771,55.748,77.955,55.748z"/>
		</g>
	</g>
	<g>
		<g>
			<path d="M77.955,41.748c-0.108,0-0.217-0.003-0.326-0.01c-2.114-0.126-4.065-1.456-5.351-3.647l-0.968-1.651     c-0.433-0.739-0.809-0.898-0.879-0.898s-0.446,0.16-0.879,0.899l-0.969,1.649c-1.255,2.141-3.147,3.369-5.191,3.369     c-2.043,0.001-3.936-1.228-5.193-3.368l-0.968-1.651c-0.356-0.607-0.79-0.982-1.158-1.001c-0.349-0.036-0.836,0.31-1.254,0.878     l-1.703,2.323c-1.438,1.961-3.455,3.017-5.542,2.915c-2.084-0.106-3.985-1.37-5.214-3.466l-0.967-1.647     c-0.357-0.609-0.79-0.984-1.158-1.003c-0.358,0-0.837,0.31-1.254,0.879l-1.703,2.322c-1.437,1.959-3.457,3.028-5.542,2.915     c-2.084-0.106-3.985-1.369-5.215-3.464l-0.968-1.651c-0.384-0.654-0.875-1.054-1.346-1.093c-0.461-0.051-0.978,0.25-1.453,0.814     l-3.833,4.552l-3.824-3.221l3.832-4.551c1.529-1.815,3.615-2.756,5.701-2.577c2.11,0.179,4.019,1.471,5.236,3.545l0.968,1.651     c0.356,0.607,0.789,0.982,1.157,1.001c0.379-0.003,0.837-0.31,1.254-0.879l1.703-2.322c1.438-1.959,3.468-3.022,5.542-2.915     c2.085,0.106,3.985,1.37,5.215,3.466l0.967,1.647c0.357,0.609,0.791,0.984,1.158,1.003c0.395,0.042,0.837-0.311,1.254-0.878     l1.703-2.323c1.437-1.96,3.458-3.021,5.542-2.915s3.985,1.369,5.215,3.464l0.968,1.651c0.433,0.739,0.809,0.898,0.879,0.898     s0.446-0.16,0.879-0.899l0.969-1.649c1.255-2.141,3.147-3.369,5.191-3.369c2.043-0.001,3.936,1.228,5.193,3.368l0.968,1.651     c0.497,0.847,1.03,1.168,1.336,1.187c0.321,0.021,0.654-0.339,0.817-0.553l3.265-4.295l3.979,3.027l-3.264,4.293     C81.494,40.84,79.771,41.748,77.955,41.748z"/>
		</g>
	</g>
</g>
<!-- <text x="0.0" y="117.5" font-size="5.0" font-weight="bold" font-family="Helvetica Neue, Helvetica, Arial-Unicode, Arial, Sans-serif" fill="#000000">Created by Ilsur Aptukov</text><text x="0.0" y="122.5" font-size="5.0" font-weight="bold" font-family="Helvetica Neue, Helvetica, Arial-Unicode, Arial, Sans-serif" fill="#000000">from the Noun Project</text> --></svg>