<svg xmlns="http://www.w3.org/2000/svg" xmlns:xlink="http://www.w3.org/1999/xlink" version="1.0" id="Layer_1" x="0px" y="0px" viewBox="5.0 -10.0 100.0 135.0" enable-background="new 0 0 100 100" xml:space="preserve" height="100px" width="100px">
<path d="M29.6,34.8c-0.9,0-1.6-0.7-1.6-1.6C28,27,33,22,39.2,22c0.9,0,1.6,0.7,1.6,1.6s-0.7,1.6-1.6,1.6c-4.4,0-7.9,3.6-7.9,7.9  C31.2,34.1,30.5,34.8,29.6,34.8z"/>
<path d="M58.3,30.2c-0.9,0-1.6-0.7-1.6-1.6c0-4.4-3.6-7.9-7.9-7.9c-4.4,0-7.9,3.6-7.9,7.9c0,0.9-0.7,1.6-1.6,1.6s-1.6-0.7-1.6-1.6  c0-6.1,5-11.2,11.2-11.2c6.1,0,11.2,5,11.2,11.2C59.9,29.5,59.1,30.2,58.3,30.2z"/>
<path d="M72.3,44.4h-24c-0.9,0-1.6-0.7-1.6-1.6s0.7-1.6,1.6-1.6h22.4v-3.5c0-4.4-3.6-7.9-7.9-7.9c-3,0-5.7,1.7-7.1,4.3  c-0.4,0.8-1.4,1.1-2.2,0.7c-0.8-0.4-1.1-1.4-0.7-2.2c1.9-3.8,5.7-6.1,10-6.1c6.2,0,11.2,5,11.2,11.2v5.1  C73.9,43.7,73.2,44.4,72.3,44.4z"/>
<path d="M37,70.4c-0.4,0-0.8-0.2-1.1-0.5l-9.3-9.3c-0.3-0.3-0.5-0.7-0.5-1.1s0.2-0.8,0.5-1.1l9.3-9.3c0.3-0.3,0.7-0.5,1.1-0.5l0,0  c0.4,0,0.8,0.2,1.1,0.5l9.3,9.3c0.6,0.6,0.6,1.7,0,2.3L38.2,70C37.9,70.3,37.5,70.4,37,70.4z M30,59.5l7,7l7-7l-7-7L30,59.5z"/>
<path d="M46.4,61.1c-0.9,0-1.6-0.7-1.6-1.6l0-10.2c0-0.9,0.7-1.6,1.6-1.6c0.9,0,1.6,0.7,1.6,1.6l0,10.2C48,60.3,47.3,61.1,46.4,61.1  z"/>
<path d="M37.2,51.8c-0.9,0-1.6-0.7-1.6-1.6l0-10.2c0-0.9,0.7-1.6,1.6-1.6c0.9,0,1.6,0.7,1.6,1.6l0,10.2  C38.8,51.1,38.1,51.8,37.2,51.8z"/>
<path d="M27.8,61.2c-0.9,0-1.6-0.7-1.6-1.6l0-10.2c0-0.4,0.2-0.8,0.5-1.1l9.2-9.2c0.6-0.6,1.7-0.6,2.3,0l9.4,9.4  c0.6,0.6,0.6,1.7,0,2.3c-0.6,0.6-1.7,0.6-2.3,0L37,42.5l-7.6,7.6l0,9.5C29.4,60.5,28.7,61.2,27.8,61.2z"/>
<path d="M37,36.7"/>
<path d="M61.5,82.6L61.5,82.6c-0.4,0-0.8-0.2-1.1-0.5l-9.3-9.3c-0.6-0.6-0.6-1.7,0-2.3l9.3-9.3c0.6-0.6,1.7-0.6,2.3,0l9.3,9.3  c0.3,0.3,0.5,0.7,0.5,1.1s-0.2,0.8-0.5,1.1l-9.3,9.3C62.4,82.4,62,82.6,61.5,82.6z M54.5,71.6l7,7l7-7l-7-7L54.5,71.6z"/>
<path d="M70.9,73.2c-0.9,0-1.6-0.7-1.6-1.6V61.4c0-0.9,0.7-1.6,1.6-1.6s1.6,0.7,1.6,1.6v10.2C72.5,72.5,71.8,73.2,70.9,73.2z"/>
<path d="M61.7,64c-0.9,0-1.6-0.7-1.6-1.6l0-10.2c0-0.9,0.7-1.6,1.6-1.6c0.9,0,1.6,0.7,1.6,1.6l0,10.2C63.3,63.2,62.6,64,61.7,64z"/>
<path d="M52.3,73.3c-0.9,0-1.6-0.7-1.6-1.6l0-10.2c0-0.4,0.2-0.8,0.5-1.1l9.2-9.2c0.6-0.6,1.7-0.6,2.3,0l9.4,9.4  c0.6,0.6,0.6,1.7,0,2.3c-0.6,0.6-1.7,0.6-2.3,0l-8.2-8.2l-7.6,7.6l0,9.5C53.9,72.6,53.2,73.3,52.3,73.3z"/>
<path d="M61.5,48.8"/>
<!-- <text x="0.0" y="117.5" font-size="5.0" font-weight="bold" font-family="Helvetica Neue, Helvetica, Arial-Unicode, Arial, Sans-serif" fill="#000000">by Daniele Catalanotto / ECAL</text><text x="0.0" y="122.5" font-size="5.0" font-weight="bold" font-family="Helvetica Neue, Helvetica, Arial-Unicode, Arial, Sans-serif" fill="#000000">from the Noun Project</text> --></svg>