<svg xmlns:dc="http://purl.org/dc/elements/1.1/" xmlns:cc="http://creativecommons.org/ns#" xmlns:rdf="http://www.w3.org/1999/02/22-rdf-syntax-ns#" xmlns:svg="http://www.w3.org/2000/svg" xmlns="http://www.w3.org/2000/svg" xmlns:sodipodi="http://sodipodi.sourceforge.net/DTD/sodipodi-0.dtd" xmlns:inkscape="http://www.inkscape.org/namespaces/inkscape" width="100" height="100" id="svg9628" version="1.1" inkscape:version="0.48.4 r9939" sodipodi:docname="weather_b2.svg" viewBox="5.0 -10.0 100 135.0">
  <defs id="defs9630"/>
  <sodipodi:namedview id="base" pagecolor="#ffffff" bordercolor="#666666" borderopacity="1.0" inkscape:pageopacity="0.0" inkscape:pageshadow="2" inkscape:zoom="1.979899" inkscape:cx="41.335689" inkscape:cy="6.6609208" inkscape:document-units="px" inkscape:current-layer="layer1" showgrid="false" inkscape:window-width="722" inkscape:window-height="604" inkscape:window-x="1198" inkscape:window-y="452" inkscape:window-maximized="0">
    <inkscape:grid type="xygrid" id="grid9687" empspacing="5" visible="true" enabled="true" snapvisiblegridlinesonly="true"/>
  </sodipodi:namedview>
  <metadata id="metadata9633">
    <rdf:RDF>
      <cc:Work rdf:about="">
        <dc:format>image/svg+xml</dc:format>
        <dc:type rdf:resource="http://purl.org/dc/dcmitype/StillImage"/>
        <dc:title/>
      </cc:Work>
    </rdf:RDF>
  </metadata>
  <g inkscape:label="Layer 1" inkscape:groupmode="layer" id="layer1" transform="translate(0,-952.36218)">
    <path inkscape:connector-curvature="0" style="font-size:medium;font-style:normal;font-variant:normal;font-weight:normal;font-stretch:normal;text-indent:0;text-align:start;text-decoration:none;line-height:normal;letter-spacing:normal;word-spacing:normal;text-transform:none;direction:ltr;block-progression:tb;writing-mode:lr-tb;text-anchor:start;baseline-shift:baseline;color:#000000;fill:#000000;fill-opacity:1;stroke:none;stroke-width:3.10883141000000007;marker:none;visibility:visible;display:inline;overflow:visible;enable-background:accumulate;font-family:Sans;-inkscape-font-specification:Sans" d="m 40.000082,981.3751 c -10.132799,0.515 -18.187499,8.9286 -18.187499,19.1875 0,10.5898 8.5976,19.1875 19.1875,19.1875 l 23.2812,0 c 7.6804,0 13.9063,-6.2259 13.9063,-13.9063 0,-7.6804 -6.2259,-13.9375 -13.9063,-13.9375 -1.991,0 -3.8769,0.4335 -5.5937,1.1875 -2.9188,-6.8842 -9.7462,-11.7187 -17.6875,-11.7187 -0.331,0 -0.6732,-0.017 -1,0 z m 1,2 c 7.191701,0 13.310701,4.4013 15.875001,10.6562 0.2602,0.634 0.4901,1.351 0.6875,1.9688 0.578,-0.3966 1.1671,-0.7714 1.8125,-1.0625 1.495,-0.6642 3.1651,-1.0313 4.9062,-1.0313 6.5995,0 11.9063,5.338 11.9063,11.9375 0,6.5996 -5.3079,11.7836 -11.9063,11.9063 l -23.2812,0.031 c -9.509,0 -17.1875,-7.7098 -17.1875,-17.2188 0,-9.5089 7.6785,-17.1875 17.1875,-17.1875 z m -5.999999,42 c -1.5,1.516 -2.5,3.133 -2.5,5 0,1.867 1.4218,2.5 2.5,2.5 1.0781,0 2.5,-0.625 2.5,-2.5 0,-1.875 -1,-3.484 -2.5,-5 z m 15,0 c -1.5,1.516 -2.5,3.133 -2.5,5 0,1.867 1.4218,2.5 2.5,2.5 1.0781,0 2.5,-0.625 2.5,-2.5 0,-1.875 -1,-3.484 -2.5,-5 z m 15,0 c -1.5,1.516 -2.5,3.133 -2.5,5 0,1.867 1.4218,2.5 2.5,2.5 1.0781,0 2.5,-0.625 2.5,-2.5 0,-1.875 -1,-3.484 -2.5,-5 z m -22,9 c -1.5,1.516 -2.5,3.133 -2.5,5 0,1.867 1.4218,2.5 2.5,2.5 1.0781,0 2.5,-0.625 2.5,-2.5 0,-1.875 -1,-3.484 -2.5,-5 z m 14,0 c -1.5,1.516 -2.5,3.133 -2.5,5 0,1.867 1.4218,2.5 2.5,2.5 1.0781,0 2.5,-0.625 2.5,-2.5 0,-1.875 -1,-3.484 -2.5,-5 z" id="path4669"/>
  </g>
<!-- <text x="0" y="117.5" font-size="5.0" font-weight="bold" font-family="Helvetica Neue, Helvetica, Arial-Unicode, Arial, Sans-serif" fill="#000000">Created by Kirill Tomilov</text><text x="0" y="122.5" font-size="5.0" font-weight="bold" font-family="Helvetica Neue, Helvetica, Arial-Unicode, Arial, Sans-serif" fill="#000000">from the Noun Project</text> --></svg>