<svg xmlns="http://www.w3.org/2000/svg" xmlns:xlink="http://www.w3.org/1999/xlink" version="1.1" id="Layer_1" x="0px" y="0px" viewBox="4.5 -9.0 90.0 121.5" enable-background="new 0 0 90 90" xml:space="preserve" height="100px" width="100px">
<g>
	<g>
		<path d="M83.2,53.1C83.2,53.1,83.2,53.1,83.2,53.1l-49.9-0.6C24.8,52.5,17.9,45.5,18,37c0.1-8.4,7-15.2,15.4-15.2    c0.1,0,0.1,0,0.2,0c5.7,0.1,10.8,3.2,13.5,8.2c0.5,1,0.1,2.2-0.8,2.7c-1,0.5-2.2,0.1-2.7-0.8c-2-3.7-5.8-6-9.9-6.1    c-6.3-0.1-11.4,5-11.5,11.2c0,3,1.1,5.9,3.2,8.1s5,3.4,8,3.4l49.9,0.6c1.1,0,2,0.9,2,2C85.2,52.3,84.3,53.1,83.2,53.1z"/>
		<path d="M73.2,47.4C73.1,47.4,73.1,47.4,73.2,47.4l-18.9-0.2c-2.1,0-4.1-0.9-5.6-2.4c-1.5-1.5-2.3-3.5-2.3-5.6    c0-2.1,0.9-4.1,2.4-5.6c1.5-1.5,3.4-2.3,5.5-2.3c0,0,0.1,0,0.1,0c2.9,0,5.5,1.6,6.9,4.2c0.5,1,0.1,2.2-0.8,2.7    c-1,0.5-2.2,0.1-2.7-0.8c-0.7-1.3-2-2-3.4-2.1c-1,0-2,0.4-2.7,1.1s-1.1,1.7-1.2,2.7c0,1,0.4,2,1.1,2.7c0.7,0.7,1.7,1.1,2.7,1.2    l18.9,0.2c1.1,0,2,0.9,2,2C75.2,46.5,74.3,47.4,73.2,47.4z"/>
		<path d="M39,70.1C38.9,70.1,38.9,70.1,39,70.1c-4.4,0-8-3.6-7.9-8c0-4.4,3.6-7.9,8-7.8l39.5,0.4c1.1,0,2,0.9,2,2c0,1.1-0.9,2-2,2    c0,0,0,0,0,0L39,58.4c0,0,0,0,0,0c-2.1,0-3.8,1.7-3.9,3.8c0,2.1,1.7,3.9,3.8,3.9c0,0,0,0,0,0c1.4,0,2.7-0.8,3.4-2    c0.5-1,1.8-1.3,2.8-0.8c1,0.5,1.3,1.8,0.8,2.8C44.5,68.6,41.8,70.1,39,70.1z"/>
	</g>
	<circle cx="8.6" cy="35.8" r="3.9"/>
	<circle cx="18.4" cy="57.8" r="3.9"/>
	<circle cx="69" cy="33.4" r="1.5"/>
	<circle cx="49.9" cy="23.8" r="1.5"/>
	<circle cx="59.3" cy="23.8" r="1.5"/>
	<circle cx="44.4" cy="21.3" r="1.5"/>
	<circle cx="49.9" cy="62.2" r="1.5"/>
	<circle cx="54.4" cy="68.1" r="1.5"/>
	<circle cx="62.2" cy="63.7" r="1.5"/>
	<circle cx="18.4" cy="22.4" r="2.4"/>
	<circle cx="9.9" cy="23.8" r="2.4"/>
	<circle cx="7.4" cy="59.8" r="2.4"/>
	<circle cx="11.1" cy="46.6" r="2.4"/>
	<circle cx="25.7" cy="64.2" r="2.4"/>
</g>
<!-- <text x="0.0" y="105.75" font-size="4.5" font-weight="bold" font-family="Helvetica Neue, Helvetica, Arial-Unicode, Arial, Sans-serif" fill="#000000">Created by Tommy Lau</text><text x="0.0" y="110.25" font-size="4.5" font-weight="bold" font-family="Helvetica Neue, Helvetica, Arial-Unicode, Arial, Sans-serif" fill="#000000">from the Noun Project</text> --></svg>