<svg xmlns="http://www.w3.org/2000/svg" xmlns:xlink="http://www.w3.org/1999/xlink" version="1.1" id="Layer_1" x="0px" y="0px" width="100px" height="100px" viewBox="5.0 -10.0 100.0 135.0" enable-background="new 0 0 100 100" xml:space="preserve">
<g>
	<path fill="#000000" d="M80.034,79.229c0.001-0.019,0.009-0.036,0.007-0.056c-0.207-2.354-5.09-57.686-6.006-60.052   c-0.915-2.364-12.799-5.949-15.793-6.818l-1.067-2.99c-0.031-0.087-0.089-0.157-0.159-0.215c-0.043-0.134-0.137-0.25-0.275-0.309   c-2.021-0.856-4.295-1.31-6.58-1.31c-2.46,0-4.887,0.521-7.02,1.504c-0.059,0.027-0.107,0.066-0.15,0.11   c-0.072,0.058-0.135,0.129-0.166,0.219l-1.068,2.99c-2.994,0.869-14.878,4.454-15.793,6.818   c-0.916,2.366-5.799,57.698-6.006,60.052c-0.002,0.02,0.006,0.037,0.007,0.056c-0.001,0.015-0.009,0.027-0.009,0.043v5.397   c0,0.276,0.224,0.5,0.5,0.5h8.152c0.276,0,0.5-0.224,0.5-0.5v-5.32c0.009-0.029,0.022-0.057,0.025-0.088l2.954-34.027l0.235,41.763   c0.001,0.206,0.129,0.39,0.321,0.464c0.4,0.153,9.893,3.755,17.009,3.755h0.693c7.116,0,16.608-3.602,17.01-3.755   c0.192-0.074,0.319-0.258,0.32-0.464l0.235-41.763l2.954,34.027c0.004,0.031,0.018,0.059,0.025,0.088v5.32   c0,0.276,0.224,0.5,0.5,0.5h8.152c0.276,0,0.5-0.224,0.5-0.5v-5.397C80.043,79.258,80.035,79.245,80.034,79.229z M57.357,12.799   l-3.887,5.521l-2.703-3.009l5.712-4.972L57.357,12.799z M55.876,9.539l-5.877,5.115L44.227,9.63   c1.838-0.74,3.866-1.149,5.934-1.149C52.139,8.48,54.098,8.855,55.876,9.539z M50.455,16.461c0,0.004-0.002,0.008-0.002,0.013   c0,0.238-0.194,0.433-0.434,0.433c-0.238,0-0.434-0.194-0.434-0.433c0-0.018-0.008-0.033-0.01-0.051l0.423-0.471L50.455,16.461z    M43.52,10.34l5.711,4.972l-2.703,3.009l-3.887-5.522L43.52,10.34z M20.955,84.17v-4.452h7.152v4.452H20.955z M33.044,37.661   c-0.001-0.134-0.055-0.262-0.15-0.354c-0.096-0.094-0.222-0.142-0.358-0.143l-0.303,0.005c-0.256,0.005-0.467,0.202-0.488,0.457   l-3.568,41.092h-7.175c1.446-16.382,5.185-57.4,5.895-59.234c0.545-1.408,8.876-4.387,14.899-6.149l4.275,6.075   c0.088,0.125,0.228,0.203,0.38,0.212c0.152,0.01,0.3-0.052,0.401-0.165l0.479-0.532v71.172c-5.816-0.556-12.488-2.895-14.01-3.45   L33.044,37.661z M49.652,90.216c-0.432,0-0.874-0.017-1.322-0.044V17.811l0.494-0.55c0.256,0.388,0.695,0.646,1.195,0.646   c0.488,0,0.919-0.246,1.178-0.62l0.639,0.711v72.162c-0.506,0.033-1.007,0.057-1.49,0.057H49.652z M68.255,37.626   c-0.022-0.255-0.233-0.452-0.489-0.457l-0.303-0.005c-0.133,0.001-0.263,0.049-0.358,0.143c-0.096,0.093-0.149,0.221-0.15,0.354   l-0.276,48.984c-1.507,0.551-8.066,2.851-13.842,3.434V19.11l0.311,0.346c0.102,0.113,0.252,0.174,0.401,0.165   c0.152-0.009,0.292-0.087,0.38-0.212l4.275-6.075c6.023,1.763,14.354,4.741,14.899,6.149c0.71,1.834,4.448,42.853,5.895,59.234   h-7.175L68.255,37.626z M71.891,84.17v-4.452h7.152v4.452H71.891z"/>
	<path fill="#000000" d="M50.066,40.018c-0.79,0-1.434,0.643-1.434,1.434c0,0.79,0.644,1.433,1.434,1.433   c0.791,0,1.434-0.643,1.434-1.433C51.5,40.66,50.857,40.018,50.066,40.018z M50.066,41.884c-0.238,0-0.434-0.194-0.434-0.433   c0-0.239,0.195-0.434,0.434-0.434c0.239,0,0.434,0.194,0.434,0.434C50.5,41.689,50.306,41.884,50.066,41.884z"/>
	<path fill="#000000" d="M50.066,64.431c-0.79,0-1.434,0.644-1.434,1.434c0,0.791,0.644,1.434,1.434,1.434   c0.791,0,1.434-0.643,1.434-1.434C51.5,65.074,50.857,64.431,50.066,64.431z M50.066,66.298c-0.238,0-0.434-0.194-0.434-0.434   s0.195-0.434,0.434-0.434c0.239,0,0.434,0.194,0.434,0.434S50.306,66.298,50.066,66.298z"/>
	<path fill="#000000" d="M50.066,76.638c-0.79,0-1.434,0.644-1.434,1.434s0.644,1.434,1.434,1.434c0.791,0,1.434-0.644,1.434-1.434   S50.857,76.638,50.066,76.638z M50.066,78.505c-0.238,0-0.434-0.194-0.434-0.434s0.195-0.434,0.434-0.434   c0.239,0,0.434,0.194,0.434,0.434S50.306,78.505,50.066,78.505z"/>
	<path fill="#000000" d="M50.066,30.678c0.791,0,1.434-0.644,1.434-1.434c0-0.791-0.643-1.434-1.434-1.434   c-0.79,0-1.434,0.643-1.434,1.434C48.633,30.034,49.276,30.678,50.066,30.678z M50.066,28.811c0.239,0,0.434,0.194,0.434,0.434   s-0.194,0.434-0.434,0.434c-0.238,0-0.434-0.194-0.434-0.434S49.828,28.811,50.066,28.811z"/>
	<path fill="#000000" d="M50.066,52.224c-0.79,0-1.434,0.644-1.434,1.434c0,0.791,0.644,1.434,1.434,1.434   c0.791,0,1.434-0.643,1.434-1.434C51.5,52.867,50.857,52.224,50.066,52.224z M50.066,54.091c-0.238,0-0.434-0.194-0.434-0.434   s0.195-0.434,0.434-0.434c0.239,0,0.434,0.194,0.434,0.434S50.306,54.091,50.066,54.091z"/>
</g>
<!-- <text x="0.0" y="117.5" font-size="5.0" font-weight="bold" font-family="Helvetica Neue, Helvetica, Arial-Unicode, Arial, Sans-serif" fill="#000000">Created by Ben Biondo</text><text x="0.0" y="122.5" font-size="5.0" font-weight="bold" font-family="Helvetica Neue, Helvetica, Arial-Unicode, Arial, Sans-serif" fill="#000000">from the Noun Project</text> --></svg>