<svg xmlns="http://www.w3.org/2000/svg" xmlns:xlink="http://www.w3.org/1999/xlink" version="1.1" width="96" height="96" viewBox="4.8 -9.6 96.0 129.6">
<path d="M48.184 13.504c-5.024 0-8.956-2.752-8.956-6.252 0-3.508 3.932-6.252 8.956-6.252s8.96 2.748 8.96 6.252c0 3.504-3.936 6.252-8.96 6.252zM48.184 5c-2.98 0-4.956 1.356-4.956 2.252 0 0.908 1.976 2.252 4.956 2.252s4.96-1.356 4.96-2.252c0-0.9-1.98-2.252-4.96-2.252z" fill="#000000"/>
	<path d="M81.036 55c-1.104 0-2-0.9-2-2 0-11.056-10.808-38.088-30.852-38.088-20.040 0-30.852 27.032-30.852 38.088 0 1.1-0.896 2-2 2s-2-0.9-2-2c0-12.588 11.86-42.088 34.852-42.088s34.852 29.5 34.852 42.088c0 1.1-0.896 2-2 2z" fill="#000000"/>
	<path d="M78 95h-20.32c-0.968 0-1.796-0.696-1.968-1.656-0.904-5.084-4.624-11.008-8.084-11.008-3.512 0-7.168 5.812-8.092 11.016-0.168 0.952-1 1.648-1.964 1.648h-19.572c-9.92 0-18-8.080-18-18v-9.28c0-6.188 3.9-11.812 9.696-13.992 8.836-3.32 22.796-5.22 38.304-5.22s29.468 1.9 38.304 5.22c5.796 2.18 9.696 7.804 9.696 13.992v9.28c0 9.92-8.080 18-18 18zM59.28 91h18.72c7.72 0 14-6.28 14-14v-9.28c0-4.532-2.856-8.656-7.1-10.252-8.264-3.1-22.076-4.952-36.9-4.952s-28.616 1.852-36.9 4.952c-4.252 1.596-7.1 5.72-7.1 10.252v9.28c0 7.72 6.28 14 14 14h17.964c1.5-5.616 5.776-12.664 11.66-12.664 5.88 0 10.156 7.048 11.656 12.664z" fill="#000000"/>
	<path d="M78 87h-14.46c-0.788 0-1.512-0.468-1.832-1.196-2.432-5.548-7.416-11.468-14.084-11.468s-11.644 5.92-14.084 11.468c-0.32 0.728-1.040 1.196-1.832 1.196h-13.708c-5.516 0-10-4.484-10-10v-9.28c0-2.884 1.812-5.492 4.512-6.508 7.844-2.936 21.104-4.712 35.488-4.712 14.376 0 27.644 1.756 35.492 4.712 2.696 1.016 4.508 3.632 4.508 6.508v9.28c0 5.516-4.484 10-10 10zM64.816 83h13.184c3.308 0 6-2.696 6-6v-9.28c0-1.22-0.764-2.336-1.916-2.756-7.42-2.772-20.164-4.436-34.084-4.436s-26.664 1.664-34.084 4.436c-1.152 0.428-1.916 1.56-1.916 2.756v9.28c0 3.304 2.692 6 6 6h12.428c3.888-7.952 10.244-12.664 17.196-12.664s13.304 4.712 17.192 12.664z" fill="#000000"/>
	<path d="M18.328 70.812c-0.832 0-1.608-0.524-1.892-1.352-0.36-1.048 0.2-2.188 1.244-2.54 1.22-0.416 2.564-0.804 4.020-1.156 1.068-0.264 2.152 0.4 2.416 1.468s-0.4 2.148-1.468 2.416c-1.332 0.328-2.564 0.68-3.668 1.064-0.224 0.060-0.432 0.1-0.652 0.1zM30.040 68.288c-0.984 0-1.848-0.752-1.976-1.752-0.14-1.084 0.624-2.092 1.72-2.252 1.304-0.164 2.656-0.32 4.052-0.452 1.084-0.056 2.084 0.704 2.188 1.796 0.104 1.1-0.7 2.084-1.784 2.196-1.352 0.116-2.648 0.264-3.916 0.428-0.104 0.028-0.196 0.036-0.284 0.036z" fill="#000000"/>
<!-- <text x="0.0" y="112.8" font-size="4.8" font-weight="bold" font-family="Helvetica Neue, Helvetica, Arial-Unicode, Arial, Sans-serif" fill="#000000">Created by iconsmind.com</text><text x="0.0" y="117.6" font-size="4.8" font-weight="bold" font-family="Helvetica Neue, Helvetica, Arial-Unicode, Arial, Sans-serif" fill="#000000">from the Noun Project</text> --></svg>